<svg xmlns="http://www.w3.org/2000/svg" viewBox="0 0 1500 180" width="100%" height="100%">
  <defs>
    <pattern id="grid" width="24" height="24" patternUnits="userSpaceOnUse">
      <circle cx="12" cy="12" r="1" fill="#1A1A1A"/>
    </pattern>

    <style>
      .bar {
        stroke: #FFFFFF;
        stroke-width: 2;
        stroke-linecap: round;
        animation-name: equalize;
        animation-timing-function: ease-in-out;
        animation-iteration-count: infinite;
        animation-direction: alternate;
      }
      
      @keyframes equalize {
        0% { transform: scaleY(0.4); opacity: 0.5; }
        100% { transform: scaleY(1); opacity: 1; }
      }
    </style>
  </defs>

  <rect width="1500" height="180" fill="#000000"/>
  <rect width="1500" height="180" fill="url(#grid)" opacity="0.6"/>

  <line x1="30" y1="90" x2="1470" y2="90" stroke="#1A1A1A" stroke-width="2"/>

  <g transform="translate(0, 90)">
    <line x1="33.0" y1="-18.0" x2="33.0" y2="18.0" class="bar" style="animation-delay: -0.4s; animation-duration: 0.96s;" />
    <line x1="41.0" y1="-18.1" x2="41.0" y2="18.1" class="bar" style="animation-delay: -0.86s; animation-duration: 0.7s;" />
    <line x1="49.0" y1="-18.3" x2="49.0" y2="18.3" class="bar" style="animation-delay: -0.7s; animation-duration: 0.9s;" />
    <line x1="57.0" y1="-20.7" x2="57.0" y2="20.7" class="bar" style="animation-delay: -0.58s; animation-duration: 0.77s;" />
    <line x1="65.0" y1="-25.5" x2="65.0" y2="25.5" class="bar" style="animation-delay: -0.77s; animation-duration: 0.81s;" />
    <line x1="73.0" y1="-20.5" x2="73.0" y2="20.5" class="bar" style="animation-delay: -0.53s; animation-duration: 0.51s;" />
    <line x1="81.0" y1="-23.3" x2="81.0" y2="23.3" class="bar" style="animation-delay: -0.99s; animation-duration: 0.61s;" />
    <line x1="89.0" y1="-21.5" x2="89.0" y2="21.5" class="bar" style="animation-delay: -0.21s; animation-duration: 0.98s;" />
    <line x1="97.0" y1="-19.0" x2="97.0" y2="19.0" class="bar" style="animation-delay: -0.74s; animation-duration: 0.6s;" />
    <line x1="105.0" y1="-25.8" x2="105.0" y2="25.8" class="bar" style="animation-delay: -0.92s; animation-duration: 0.82s;" />
    <line x1="113.0" y1="-20.5" x2="113.0" y2="20.5" class="bar" style="animation-delay: -0.16s; animation-duration: 0.81s;" />
    <line x1="121.0" y1="-25.5" x2="121.0" y2="25.5" class="bar" style="animation-delay: -0.72s; animation-duration: 0.82s;" />
    <line x1="129.0" y1="-19.3" x2="129.0" y2="19.3" class="bar" style="animation-delay: -0.37s; animation-duration: 0.94s;" />
    <line x1="137.0" y1="-22.3" x2="137.0" y2="22.3" class="bar" style="animation-delay: -0.22s; animation-duration: 0.77s;" />
    <line x1="145.0" y1="-23.6" x2="145.0" y2="23.6" class="bar" style="animation-delay: -0.4s; animation-duration: 0.53s;" />
    <line x1="153.0" y1="-18.9" x2="153.0" y2="18.9" class="bar" style="animation-delay: -0.54s; animation-duration: 0.54s;" />
    <line x1="161.0" y1="-22.0" x2="161.0" y2="22.0" class="bar" style="animation-delay: -0.2s; animation-duration: 0.66s;" />
    <line x1="169.0" y1="-23.8" x2="169.0" y2="23.8" class="bar" style="animation-delay: -0.38s; animation-duration: 0.83s;" />
    <line x1="177.0" y1="-20.5" x2="177.0" y2="20.5" class="bar" style="animation-delay: -0.06s; animation-duration: 0.85s;" />
    <line x1="185.0" y1="-25.0" x2="185.0" y2="25.0" class="bar" style="animation-delay: -0.63s; animation-duration: 0.85s;" />
    <line x1="193.0" y1="-24.4" x2="193.0" y2="24.4" class="bar" style="animation-delay: -0.19s; animation-duration: 0.59s;" />
    <line x1="201.0" y1="-23.3" x2="201.0" y2="23.3" class="bar" style="animation-delay: -0.19s; animation-duration: 0.96s;" />
    <line x1="209.0" y1="-21.1" x2="209.0" y2="21.1" class="bar" style="animation-delay: -0.7s; animation-duration: 0.69s;" />
    <line x1="217.0" y1="-21.6" x2="217.0" y2="21.6" class="bar" style="animation-delay: -0.21s; animation-duration: 0.77s;" />
    <line x1="225.0" y1="-28.2" x2="225.0" y2="28.2" class="bar" style="animation-delay: -0.6s; animation-duration: 0.59s;" />
    <line x1="233.0" y1="-20.9" x2="233.0" y2="20.9" class="bar" style="animation-delay: -0.16s; animation-duration: 0.66s;" />
    <line x1="241.0" y1="-24.6" x2="241.0" y2="24.6" class="bar" style="animation-delay: -0.65s; animation-duration: 0.59s;" />
    <line x1="249.0" y1="-19.5" x2="249.0" y2="19.5" class="bar" style="animation-delay: -0.4s; animation-duration: 0.97s;" />
    <line x1="257.0" y1="-26.1" x2="257.0" y2="26.1" class="bar" style="animation-delay: -0.49s; animation-duration: 0.5s;" />
    <line x1="265.0" y1="-25.1" x2="265.0" y2="25.1" class="bar" style="animation-delay: -0.83s; animation-duration: 0.7s;" />
    <line x1="273.0" y1="-21.7" x2="273.0" y2="21.7" class="bar" style="animation-delay: -0.99s; animation-duration: 0.6s;" />
    <line x1="281.0" y1="-25.8" x2="281.0" y2="25.8" class="bar" style="animation-delay: -0.5s; animation-duration: 0.78s;" />
    <line x1="289.0" y1="-23.6" x2="289.0" y2="23.6" class="bar" style="animation-delay: -0.34s; animation-duration: 0.99s;" />
    <line x1="297.0" y1="-23.5" x2="297.0" y2="23.5" class="bar" style="animation-delay: -0.55s; animation-duration: 0.81s;" />
    <line x1="305.0" y1="-23.1" x2="305.0" y2="23.1" class="bar" style="animation-delay: -0.91s; animation-duration: 0.6s;" />
    <line x1="313.0" y1="-21.4" x2="313.0" y2="21.4" class="bar" style="animation-delay: -0.53s; animation-duration: 0.76s;" />
    <line x1="321.0" y1="-23.0" x2="321.0" y2="23.0" class="bar" style="animation-delay: -0.27s; animation-duration: 0.69s;" />
    <line x1="329.0" y1="-18.7" x2="329.0" y2="18.7" class="bar" style="animation-delay: -0.37s; animation-duration: 0.5s;" />
    <line x1="337.0" y1="-22.6" x2="337.0" y2="22.6" class="bar" style="animation-delay: -0.19s; animation-duration: 0.77s;" />
    <line x1="345.0" y1="-27.1" x2="345.0" y2="27.1" class="bar" style="animation-delay: -0.83s; animation-duration: 0.77s;" />
    <line x1="353.0" y1="-20.8" x2="353.0" y2="20.8" class="bar" style="animation-delay: -0.17s; animation-duration: 0.89s;" />
    <line x1="361.0" y1="-24.0" x2="361.0" y2="24.0" class="bar" style="animation-delay: -0.14s; animation-duration: 0.59s;" />
    <line x1="369.0" y1="-19.8" x2="369.0" y2="19.8" class="bar" style="animation-delay: -0.25s; animation-duration: 0.84s;" />
    <line x1="377.0" y1="-21.6" x2="377.0" y2="21.6" class="bar" style="animation-delay: -0.29s; animation-duration: 0.74s;" />
    <line x1="385.0" y1="-23.4" x2="385.0" y2="23.4" class="bar" style="animation-delay: -0.38s; animation-duration: 0.77s;" />
    <line x1="393.0" y1="-19.9" x2="393.0" y2="19.9" class="bar" style="animation-delay: -0.4s; animation-duration: 0.88s;" />
    <line x1="401.0" y1="-21.9" x2="401.0" y2="21.9" class="bar" style="animation-delay: -0.26s; animation-duration: 0.69s;" />
    <line x1="409.0" y1="-21.2" x2="409.0" y2="21.2" class="bar" style="animation-delay: -0.91s; animation-duration: 0.5s;" />
    <line x1="417.0" y1="-24.9" x2="417.0" y2="24.9" class="bar" style="animation-delay: -0.93s; animation-duration: 0.61s;" />
    <line x1="425.0" y1="-21.6" x2="425.0" y2="21.6" class="bar" style="animation-delay: -0.18s; animation-duration: 0.8s;" />
    <line x1="433.0" y1="-25.1" x2="433.0" y2="25.1" class="bar" style="animation-delay: -0.83s; animation-duration: 0.82s;" />
    <line x1="441.0" y1="-25.2" x2="441.0" y2="25.2" class="bar" style="animation-delay: -0.7s; animation-duration: 0.61s;" />
    <line x1="449.0" y1="-24.1" x2="449.0" y2="24.1" class="bar" style="animation-delay: -0.32s; animation-duration: 0.88s;" />
    <line x1="457.0" y1="-21.4" x2="457.0" y2="21.4" class="bar" style="animation-delay: -0.87s; animation-duration: 0.57s;" />
    <line x1="465.0" y1="-25.8" x2="465.0" y2="25.8" class="bar" style="animation-delay: -0.21s; animation-duration: 0.84s;" />
    <line x1="473.0" y1="-21.8" x2="473.0" y2="21.8" class="bar" style="animation-delay: -0.76s; animation-duration: 0.57s;" />
    <line x1="481.0" y1="-23.5" x2="481.0" y2="23.5" class="bar" style="animation-delay: -0.63s; animation-duration: 0.99s;" />
    <line x1="489.0" y1="-22.6" x2="489.0" y2="22.6" class="bar" style="animation-delay: -0.21s; animation-duration: 0.94s;" />
    <line x1="497.0" y1="-24.1" x2="497.0" y2="24.1" class="bar" style="animation-delay: -0.33s; animation-duration: 0.67s;" />
    <line x1="505.0" y1="-23.2" x2="505.0" y2="23.2" class="bar" style="animation-delay: -0.74s; animation-duration: 0.88s;" />
    <line x1="513.0" y1="-24.9" x2="513.0" y2="24.9" class="bar" style="animation-delay: -0.65s; animation-duration: 0.84s;" />
    <line x1="521.0" y1="-23.0" x2="521.0" y2="23.0" class="bar" style="animation-delay: -0.76s; animation-duration: 0.99s;" />
    <line x1="529.0" y1="-17.8" x2="529.0" y2="17.8" class="bar" style="animation-delay: -0.19s; animation-duration: 0.84s;" />
    <line x1="537.0" y1="-30.9" x2="537.0" y2="30.9" class="bar" style="animation-delay: -0.56s; animation-duration: 0.55s;" />
    <line x1="545.0" y1="-27.6" x2="545.0" y2="27.6" class="bar" style="animation-delay: -0.77s; animation-duration: 0.95s;" />
    <line x1="553.0" y1="-35.4" x2="553.0" y2="35.4" class="bar" style="animation-delay: -0.89s; animation-duration: 0.86s;" />
    <line x1="561.0" y1="-34.1" x2="561.0" y2="34.1" class="bar" style="animation-delay: -0.74s; animation-duration: 0.95s;" />
    <line x1="569.0" y1="-29.8" x2="569.0" y2="29.8" class="bar" style="animation-delay: -0.76s; animation-duration: 0.99s;" />
    <line x1="577.0" y1="-30.0" x2="577.0" y2="30.0" class="bar" style="animation-delay: -0.37s; animation-duration: 0.65s;" />
    <line x1="585.0" y1="-32.5" x2="585.0" y2="32.5" class="bar" style="animation-delay: -0.69s; animation-duration: 0.53s;" />
    <line x1="593.0" y1="-29.5" x2="593.0" y2="29.5" class="bar" style="animation-delay: -0.4s; animation-duration: 0.5s;" />
    <line x1="601.0" y1="-29.0" x2="601.0" y2="29.0" class="bar" style="animation-delay: -0.59s; animation-duration: 0.61s;" />
    <line x1="609.0" y1="-34.5" x2="609.0" y2="34.5" class="bar" style="animation-delay: -0.27s; animation-duration: 0.66s;" />
    <line x1="617.0" y1="-34.6" x2="617.0" y2="34.6" class="bar" style="animation-delay: -0.34s; animation-duration: 0.77s;" />
    <line x1="625.0" y1="-32.5" x2="625.0" y2="32.5" class="bar" style="animation-delay: -0.33s; animation-duration: 0.89s;" />
    <line x1="633.0" y1="-31.4" x2="633.0" y2="31.4" class="bar" style="animation-delay: -0.96s; animation-duration: 0.86s;" />
    <line x1="641.0" y1="-34.6" x2="641.0" y2="34.6" class="bar" style="animation-delay: -0.19s; animation-duration: 0.67s;" />
    <line x1="649.0" y1="-28.0" x2="649.0" y2="28.0" class="bar" style="animation-delay: -0.36s; animation-duration: 0.72s;" />
    <line x1="657.0" y1="-29.5" x2="657.0" y2="29.5" class="bar" style="animation-delay: -0.92s; animation-duration: 0.9s;" />
    <line x1="665.0" y1="-21.3" x2="665.0" y2="21.3" class="bar" style="animation-delay: -0.16s; animation-duration: 0.64s;" />
    <line x1="673.0" y1="-25.4" x2="673.0" y2="25.4" class="bar" style="animation-delay: -0.12s; animation-duration: 0.8s;" />
    <line x1="681.0" y1="-24.4" x2="681.0" y2="24.4" class="bar" style="animation-delay: -0.01s; animation-duration: 0.83s;" />
    <line x1="689.0" y1="-18.8" x2="689.0" y2="18.8" class="bar" style="animation-delay: -0.4s; animation-duration: 0.93s;" />
    <line x1="697.0" y1="-23.8" x2="697.0" y2="23.8" class="bar" style="animation-delay: -0.43s; animation-duration: 0.56s;" />
    <line x1="705.0" y1="-25.8" x2="705.0" y2="25.8" class="bar" style="animation-delay: -0.42s; animation-duration: 0.52s;" />
    <line x1="713.0" y1="-21.0" x2="713.0" y2="21.0" class="bar" style="animation-delay: -0.84s; animation-duration: 0.5s;" />
    <line x1="721.0" y1="-26.2" x2="721.0" y2="26.2" class="bar" style="animation-delay: -0.7s; animation-duration: 0.7s;" />
    <line x1="729.0" y1="-20.1" x2="729.0" y2="20.1" class="bar" style="animation-delay: -0.85s; animation-duration: 0.61s;" />
    <line x1="737.0" y1="-25.8" x2="737.0" y2="25.8" class="bar" style="animation-delay: -0.06s; animation-duration: 0.65s;" />
    <line x1="745.0" y1="-23.3" x2="745.0" y2="23.3" class="bar" style="animation-delay: -0.22s; animation-duration: 0.96s;" />
    <line x1="753.0" y1="-19.6" x2="753.0" y2="19.6" class="bar" style="animation-delay: -0.23s; animation-duration: 0.74s;" />
    <line x1="761.0" y1="-25.3" x2="761.0" y2="25.3" class="bar" style="animation-delay: -0.32s; animation-duration: 0.81s;" />
    <line x1="769.0" y1="-21.8" x2="769.0" y2="21.8" class="bar" style="animation-delay: -0.06s; animation-duration: 0.76s;" />
    <line x1="777.0" y1="-27.8" x2="777.0" y2="27.8" class="bar" style="animation-delay: -0.06s; animation-duration: 0.66s;" />
    <line x1="785.0" y1="-21.5" x2="785.0" y2="21.5" class="bar" style="animation-delay: -0.82s; animation-duration: 0.85s;" />
    <line x1="793.0" y1="-23.6" x2="793.0" y2="23.6" class="bar" style="animation-delay: -0.03s; animation-duration: 0.99s;" />
    <line x1="801.0" y1="-22.9" x2="801.0" y2="22.9" class="bar" style="animation-delay: -0.59s; animation-duration: 0.63s;" />
    <line x1="809.0" y1="-20.8" x2="809.0" y2="20.8" class="bar" style="animation-delay: -0.23s; animation-duration: 0.7s;" />
    <line x1="817.0" y1="-21.0" x2="817.0" y2="21.0" class="bar" style="animation-delay: -0.28s; animation-duration: 0.65s;" />
    <line x1="825.0" y1="-25.5" x2="825.0" y2="25.5" class="bar" style="animation-delay: -0.2s; animation-duration: 0.62s;" />
    <line x1="833.0" y1="-20.7" x2="833.0" y2="20.7" class="bar" style="animation-delay: -0.4s; animation-duration: 0.8s;" />
    <line x1="841.0" y1="-21.0" x2="841.0" y2="21.0" class="bar" style="animation-delay: -0.32s; animation-duration: 0.83s;" />
    <line x1="849.0" y1="-21.3" x2="849.0" y2="21.3" class="bar" style="animation-delay: -0.36s; animation-duration: 0.68s;" />
    <line x1="857.0" y1="-23.5" x2="857.0" y2="23.5" class="bar" style="animation-delay: -0.58s; animation-duration: 0.5s;" />
    <line x1="865.0" y1="-19.8" x2="865.0" y2="19.8" class="bar" style="animation-delay: -0.7s; animation-duration: 0.76s;" />
    <line x1="873.0" y1="-18.0" x2="873.0" y2="18.0" class="bar" style="animation-delay: -0.06s; animation-duration: 0.53s;" />
    <line x1="881.0" y1="-23.0" x2="881.0" y2="23.0" class="bar" style="animation-delay: -0.14s; animation-duration: 0.94s;" />
    <line x1="889.0" y1="-12.0" x2="889.0" y2="12.0" class="bar" style="animation-delay: -0.05s; animation-duration: 0.67s;" />
    <line x1="897.0" y1="-26.4" x2="897.0" y2="26.4" class="bar" style="animation-delay: -0.37s; animation-duration: 0.81s;" />
    <line x1="905.0" y1="-22.4" x2="905.0" y2="22.4" class="bar" style="animation-delay: -0.99s; animation-duration: 0.6s;" />
    <line x1="913.0" y1="-25.2" x2="913.0" y2="25.2" class="bar" style="animation-delay: -0.19s; animation-duration: 0.52s;" />
    <line x1="921.0" y1="-23.6" x2="921.0" y2="23.6" class="bar" style="animation-delay: -0.17s; animation-duration: 0.72s;" />
    <line x1="929.0" y1="-22.6" x2="929.0" y2="22.6" class="bar" style="animation-delay: -0.4s; animation-duration: 0.66s;" />
    <line x1="937.0" y1="-23.4" x2="937.0" y2="23.4" class="bar" style="animation-delay: -0.39s; animation-duration: 0.83s;" />
    <line x1="945.0" y1="-24.2" x2="945.0" y2="24.2" class="bar" style="animation-delay: -0.06s; animation-duration: 0.67s;" />
    <line x1="953.0" y1="-24.6" x2="953.0" y2="24.6" class="bar" style="animation-delay: -0.66s; animation-duration: 0.6s;" />
    <line x1="961.0" y1="-21.1" x2="961.0" y2="21.1" class="bar" style="animation-delay: -0.83s; animation-duration: 0.9s;" />
    <line x1="969.0" y1="-24.9" x2="969.0" y2="24.9" class="bar" style="animation-delay: -0.56s; animation-duration: 0.87s;" />
    <line x1="977.0" y1="-24.1" x2="977.0" y2="24.1" class="bar" style="animation-delay: -0.64s; animation-duration: 0.82s;" />
    <line x1="985.0" y1="-24.5" x2="985.0" y2="24.5" class="bar" style="animation-delay: -0.73s; animation-duration: 0.97s;" />
    <line x1="993.0" y1="-23.4" x2="993.0" y2="23.4" class="bar" style="animation-delay: -0.06s; animation-duration: 0.65s;" />
    <line x1="1001.0" y1="-26.8" x2="1001.0" y2="26.8" class="bar" style="animation-delay: -0.51s; animation-duration: 0.95s;" />
    <line x1="1009.0" y1="-20.2" x2="1009.0" y2="20.2" class="bar" style="animation-delay: -0.3s; animation-duration: 0.5s;" />
    <line x1="1017.0" y1="-32.4" x2="1017.0" y2="32.4" class="bar" style="animation-delay: -0.36s; animation-duration: 0.72s;" />
    <line x1="1025.0" y1="-31.5" x2="1025.0" y2="31.5" class="bar" style="animation-delay: -0.7s; animation-duration: 0.57s;" />
    <line x1="1033.0" y1="-37.0" x2="1033.0" y2="37.0" class="bar" style="animation-delay: -0.6s; animation-duration: 0.57s;" />
    <line x1="1041.0" y1="-32.8" x2="1041.0" y2="32.8" class="bar" style="animation-delay: -0.68s; animation-duration: 0.64s;" />
    <line x1="1049.0" y1="-33.0" x2="1049.0" y2="33.0" class="bar" style="animation-delay: -0.4s; animation-duration: 0.73s;" />
    <line x1="1057.0" y1="-35.8" x2="1057.0" y2="35.8" class="bar" style="animation-delay: -0.01s; animation-duration: 0.57s;" />
    <line x1="1065.0" y1="-31.4" x2="1065.0" y2="31.4" class="bar" style="animation-delay: -0.76s; animation-duration: 0.94s;" />
    <line x1="1073.0" y1="-31.8" x2="1073.0" y2="31.8" class="bar" style="animation-delay: -0.73s; animation-duration: 0.67s;" />
    <line x1="1081.0" y1="-30.4" x2="1081.0" y2="30.4" class="bar" style="animation-delay: -0.55s; animation-duration: 0.81s;" />
    <line x1="1089.0" y1="-37.1" x2="1089.0" y2="37.1" class="bar" style="animation-delay: -0.86s; animation-duration: 0.73s;" />
    <line x1="1097.0" y1="-36.5" x2="1097.0" y2="36.5" class="bar" style="animation-delay: -0.98s; animation-duration: 0.87s;" />
    <line x1="1105.0" y1="-35.5" x2="1105.0" y2="35.5" class="bar" style="animation-delay: -0.66s; animation-duration: 0.63s;" />
    <line x1="1113.0" y1="-32.3" x2="1113.0" y2="32.3" class="bar" style="animation-delay: -0.6s; animation-duration: 0.84s;" />
    <line x1="1121.0" y1="-36.3" x2="1121.0" y2="36.3" class="bar" style="animation-delay: -0.77s; animation-duration: 0.68s;" />
    <line x1="1129.0" y1="-31.4" x2="1129.0" y2="31.4" class="bar" style="animation-delay: -0.56s; animation-duration: 0.53s;" />
    <line x1="1137.0" y1="-33.4" x2="1137.0" y2="33.4" class="bar" style="animation-delay: -0.0s; animation-duration: 0.5s;" />
    <line x1="1145.0" y1="-31.6" x2="1145.0" y2="31.6" class="bar" style="animation-delay: -0.4s; animation-duration: 0.67s;" />
    <line x1="1153.0" y1="-35.6" x2="1153.0" y2="35.6" class="bar" style="animation-delay: -0.56s; animation-duration: 0.94s;" />
    <line x1="1161.0" y1="-32.8" x2="1161.0" y2="32.8" class="bar" style="animation-delay: -0.02s; animation-duration: 0.6s;" />
    <line x1="1169.0" y1="-34.8" x2="1169.0" y2="34.8" class="bar" style="animation-delay: -0.96s; animation-duration: 0.65s;" />
    <line x1="1177.0" y1="-34.1" x2="1177.0" y2="34.1" class="bar" style="animation-delay: -0.53s; animation-duration: 0.84s;" />
    <line x1="1185.0" y1="-37.3" x2="1185.0" y2="37.3" class="bar" style="animation-delay: -0.76s; animation-duration: 0.91s;" />
    <line x1="1193.0" y1="-32.2" x2="1193.0" y2="32.2" class="bar" style="animation-delay: -0.5s; animation-duration: 0.64s;" />
    <line x1="1201.0" y1="-32.7" x2="1201.0" y2="32.7" class="bar" style="animation-delay: -0.83s; animation-duration: 0.77s;" />
    <line x1="1209.0" y1="-33.3" x2="1209.0" y2="33.3" class="bar" style="animation-delay: -0.44s; animation-duration: 0.5s;" />
    <line x1="1217.0" y1="-35.4" x2="1217.0" y2="35.4" class="bar" style="animation-delay: -0.21s; animation-duration: 0.92s;" />
    <line x1="1225.0" y1="-33.8" x2="1225.0" y2="33.8" class="bar" style="animation-delay: -0.57s; animation-duration: 0.59s;" />
    <line x1="1233.0" y1="-36.8" x2="1233.0" y2="36.8" class="bar" style="animation-delay: -0.42s; animation-duration: 0.78s;" />
    <line x1="1241.0" y1="-32.6" x2="1241.0" y2="32.6" class="bar" style="animation-delay: -0.66s; animation-duration: 0.51s;" />
    <line x1="1249.0" y1="-31.2" x2="1249.0" y2="31.2" class="bar" style="animation-delay: -0.99s; animation-duration: 0.69s;" />
    <line x1="1257.0" y1="-34.5" x2="1257.0" y2="34.5" class="bar" style="animation-delay: -0.92s; animation-duration: 0.96s;" />
    <line x1="1265.0" y1="-35.1" x2="1265.0" y2="35.1" class="bar" style="animation-delay: -0.85s; animation-duration: 0.92s;" />
    <line x1="1273.0" y1="-36.3" x2="1273.0" y2="36.3" class="bar" style="animation-delay: -0.32s; animation-duration: 0.56s;" />
    <line x1="1281.0" y1="-33.7" x2="1281.0" y2="33.7" class="bar" style="animation-delay: -0.7s; animation-duration: 0.81s;" />
    <line x1="1289.0" y1="-33.1" x2="1289.0" y2="33.1" class="bar" style="animation-delay: -0.7s; animation-duration: 0.72s;" />
    <line x1="1297.0" y1="-35.6" x2="1297.0" y2="35.6" class="bar" style="animation-delay: -0.88s; animation-duration: 0.71s;" />
    <line x1="1305.0" y1="-39.0" x2="1305.0" y2="39.0" class="bar" style="animation-delay: -0.4s; animation-duration: 0.69s;" />
    <line x1="1313.0" y1="-34.6" x2="1313.0" y2="34.6" class="bar" style="animation-delay: -0.7s; animation-duration: 0.87s;" />
    <line x1="1321.0" y1="-33.8" x2="1321.0" y2="33.8" class="bar" style="animation-delay: -0.71s; animation-duration: 0.91s;" />
    <line x1="1329.0" y1="-36.3" x2="1329.0" y2="36.3" class="bar" style="animation-delay: -0.21s; animation-duration: 0.71s;" />
    <line x1="1337.0" y1="-37.2" x2="1337.0" y2="37.2" class="bar" style="animation-delay: -0.66s; animation-duration: 0.7s;" />
    <line x1="1345.0" y1="-32.0" x2="1345.0" y2="32.0" class="bar" style="animation-delay: -0.01s; animation-duration: 0.76s;" />
    <line x1="1353.0" y1="-31.4" x2="1353.0" y2="31.4" class="bar" style="animation-delay: -0.52s; animation-duration: 0.67s;" />
    <line x1="1361.0" y1="-30.3" x2="1361.0" y2="30.3" class="bar" style="animation-delay: -0.49s; animation-duration: 0.81s;" />
    <line x1="1369.0" y1="-30.7" x2="1369.0" y2="30.7" class="bar" style="animation-delay: -0.22s; animation-duration: 0.5s;" />
    <line x1="1377.0" y1="-32.0" x2="1377.0" y2="32.0" class="bar" style="animation-delay: -0.19s; animation-duration: 0.9s;" />
    <line x1="1385.0" y1="-29.6" x2="1385.0" y2="29.6" class="bar" style="animation-delay: -0.75s; animation-duration: 0.61s;" />
    <line x1="1393.0" y1="-33.5" x2="1393.0" y2="33.5" class="bar" style="animation-delay: -0.75s; animation-duration: 0.89s;" />
    <line x1="1401.0" y1="-29.6" x2="1401.0" y2="29.6" class="bar" style="animation-delay: -0.12s; animation-duration: 0.8s;" />
    <line x1="1409.0" y1="-28.0" x2="1409.0" y2="28.0" class="bar" style="animation-delay: -0.73s; animation-duration: 0.53s;" />
    <line x1="1417.0" y1="-25.7" x2="1417.0" y2="25.7" class="bar" style="animation-delay: -0.92s; animation-duration: 0.89s;" />
    <line x1="1425.0" y1="-25.8" x2="1425.0" y2="25.8" class="bar" style="animation-delay: -0.77s; animation-duration: 0.8s;" />
    <line x1="1433.0" y1="-26.7" x2="1433.0" y2="26.7" class="bar" style="animation-delay: -0.44s; animation-duration: 0.74s;" />
    <line x1="1441.0" y1="-27.7" x2="1441.0" y2="27.7" class="bar" style="animation-delay: -0.16s; animation-duration: 0.69s;" />
    <line x1="1449.0" y1="-26.2" x2="1449.0" y2="26.2" class="bar" style="animation-delay: -0.06s; animation-duration: 0.52s;" />
    <line x1="1457.0" y1="-5.5" x2="1457.0" y2="5.5" class="bar" style="animation-delay: -0.98s; animation-duration: 0.63s;" />
    <line x1="1465.0" y1="-4.0" x2="1465.0" y2="4.0" class="bar" style="animation-delay: -0.05s; animation-duration: 0.69s;" />
  </g>

  <circle cx="42" cy="156" r="3.5" fill="#00FF66">
    <animate attributeName="opacity" values="1;0.1;1" dur="2s" repeatCount="indefinite"/>
  </circle>
  <text x="58" y="160" fill="#707070" font-family="monospace, sans-serif" font-weight="bold" font-size="11" letter-spacing="3">
    AVAILABLE FOR WORK
  </text>

  <text x="1460" y="160" text-anchor="end" fill="#444444" font-family="monospace, sans-serif" font-weight="bold" font-size="11" letter-spacing="3">
    © 2026 ABHIRAM SHIBU
  </text>

  <g stroke="#222222" stroke-width="1.5">
    <line x1="30" y1="25" x2="65" y2="25"/>
    <line x1="30" y1="25" x2="30" y2="60"/>

    <line x1="1470" y1="25" x2="1435" y2="25"/>
    <line x1="1470" y1="25" x2="1470" y2="60"/>

    <line x1="30" y1="155" x2="65" y2="155"/>
    <line x1="30" y1="155" x2="30" y2="120"/>

    <line x1="1470" y1="155" x2="1435" y2="155"/>
    <line x1="1470" y1="155" x2="1470" y2="120"/>
  </g>
</svg>
